<?xml version="1.0" encoding="UTF-8" standalone="no"?>
<svg
   xmlns:dc="http://purl.org/dc/elements/1.1/"
   xmlns:cc="http://creativecommons.org/ns#"
   xmlns:rdf="http://www.w3.org/1999/02/22-rdf-syntax-ns#"
   xmlns:svg="http://www.w3.org/2000/svg"
   xmlns="http://www.w3.org/2000/svg"
   xmlns:sodipodi="http://sodipodi.sourceforge.net/DTD/sodipodi-0.dtd"
   xmlns:inkscape="http://www.inkscape.org/namespaces/inkscape"
   width="48"
   height="48"
   viewBox="-1250 -1050 240 240"
   version="1.1"
   id="svg20"
   sodipodi:docname="logo.svg"
   inkscape:version="0.92.2 2405546, 2018-03-11">
  <metadata
     id="metadata26">
    <rdf:RDF>
      <cc:Work
         rdf:about="">
        <dc:format>image/svg+xml</dc:format>
        <dc:type
           rdf:resource="http://purl.org/dc/dcmitype/StillImage" />
        <dc:title>Padlocked heart.</dc:title>
      </cc:Work>
    </rdf:RDF>
  </metadata>
  <defs
     id="defs24" />
  <sodipodi:namedview
     pagecolor="#ffffff"
     bordercolor="#666666"
     borderopacity="1"
     objecttolerance="10"
     gridtolerance="10"
     guidetolerance="10"
     inkscape:pageopacity="0"
     inkscape:pageshadow="2"
     inkscape:window-width="1920"
     inkscape:window-height="1016"
     id="namedview22"
     showgrid="false"
     inkscape:zoom="8.2663628"
     inkscape:cx="32.289531"
     inkscape:cy="9.2442911"
     inkscape:window-x="0"
     inkscape:window-y="27"
     inkscape:window-maximized="1"
     inkscape:current-layer="svg20" />
  <title
     id="title2">Padlocked heart.</title>
  <g
     transform="matrix(0.07667732,0,0,-0.07667732,-1130,-886.67732)"
     id="g18">
    <g
       id="g10"
       style="fill:none;stroke:#c0c0c0;stroke-width:360">
      <path
         d="m -630,0 v 1320 a 630,630 0 0 0 1260,0 V 0"
         id="path4"
         inkscape:connector-curvature="0" />
      <path
         d="m -630,0 v 1320 a 630,630 0 0 0 1260,0 V 0"
         id="path6"
         inkscape:connector-curvature="0"
         style="stroke-width:180" />
      <path
         d="m -630,0 v 1320 m 1260,0 V 0 M -630,1320 a 630,630 0 0 0 1260,0"
         id="path8"
         inkscape:connector-curvature="0" />
    </g>
    <path
       d="M 0,-1000 -1000,0 A 635.674,635.674 0 1 0 0,767.327 635.674,635.674 0 1 0 1000,0 Z"
       id="path12"
       inkscape:connector-curvature="0"
       style="fill:#19528a" />
    <circle
       cy="296.5"
       r="209"
       id="circle14"
       cx="0" />
    <path
       d="M -76,220.5 -218.5,-416 h 437 L 76,220.5 Z"
       id="path16"
       inkscape:connector-curvature="0" />
  </g>
</svg>
